{"title":"Piranha 2010 R5 H264.Feel-Free","uid":5869020,"size":987223237,"categoryP":"video","categoryS":"movies","magnet":"?xt=urn:btih:1d2aa66a045dae68d9e637b71d541700f047966d&amp;dn=Piranha+2010+R5+H264.Feel-Free&amp;tr=udp%3A%2F%2Ftracker.openbittorrent.com%3A80&amp;tr=udp%3A%2F%2Fopen.demonii.com%3A1337&amp;tr=udp%3A%2F%2Ftracker.coppersurfer.tk%3A6969&amp;tr=udp%3A%2F%2Fexodus.desync.com%3A6969","seeders":0,"leechers":0,"uploader":"neon","files":-1,"time":1286389938,"description":"After a sudden underwater tremor sets free scores of the prehistoric man-eating fish, an unlikely group of strangers must band together to stop themselves from becoming fish food for the area's new razor-toothed residents\n\n\nGenre:Action | Horror | Sci-Fi | Thriller\nLanguage:English\n &lt;a href=&quot; http://www.imdb.com/title/tt0464154/&quot; rel=&quot;nofollow&quot; target=&quot;_NEW&quot;&gt; http://www.imdb.com/title/tt0464154/&lt;/a&gt;\nSourceVD5/Audio Studio\nSubtitles:Romana\n\nGeneral\nComplete name iranha.2010.R5.H264.Feel-Free\nFormat : MPEG-4\nFormat profile : Base Media\nCodec ID : isom\nFile size : 940 MiB\nDuration : 1h 24mn\nOverall bit rate : 1 549 Kbps\nVideo #2\nCodec ID : avc1\nCodec ID/Info : Advanced Video Coding\nDuration : 1h 24mn\nBit rate mode : Variable\nBit rate : 1 383 Kbps\nWidth : 720 pixels\nHeight : 304 pixels\nDisplay aspect ratio : 2.35:1\nFrame rate mode : Constant\nFrame rate : 25.000 fps\nResolution : 24 bits\nColorimetry : 4:2:0\nScan type : Progressive\nBits/(Pixel*Frame) : 0.253\nStream size : 839 MiB (89%)\nAudio #1\nID : 1\nFormat : AAC\nFormat/Info : Advanced Audio Codec\nFormat version : Version 4\nFormat profile : LC\nFormat settings, SBR : No\nCodec ID : 40\nDuration : 1h 24mn\nBit rate mode : Constant\nBit rate : 160 Kbps\nChannel(s) : 2 channels\nChannel positions : L R\nSampling rate : 48.0 KHz\nResolution : 16 bits\nStream size : 96.8 MiB (10%)","torrent":{"xt":"urn:btih:1d2aa66a045dae68d9e637b71d541700f047966d","amp;dn":"Piranha+2010+R5+H264.Feel-Free","amp;tr":["udp%3A%2F%2Ftracker.openbittorrent.com%3A80","udp%3A%2F%2Fopen.demonii.com%3A1337","udp%3A%2F%2Ftracker.coppersurfer.tk%3A6969","udp%3A%2F%2Fexodus.desync.com%3A6969"],"infoHash":"1d2aa66a045dae68d9e637b71d541700f047966d","infoHashBuffer":{"type":"Buffer","data":[29,42,166,106,4,93,174,104,217,230,55,183,29,84,23,0,240,71,150,109]},"announce":[],"urlList":[]}}